<svg id="Picture" xmlns="http://www.w3.org/2000/svg" xmlns:xlink="http://www.w3.org/1999/xlink" viewBox="0 0 25.45 6.34"><defs><style>.cls-1{fill:#231f20;}.cls-2{fill:#2484c6;}</style><symbol id="Nouveau_symbole_4" data-name="Nouveau symbole 4" viewBox="0 0 25.45 6.34"><path class="cls-1" d="M2.56,6.34a2.53,2.53,0,0,1-1-.19A2.49,2.49,0,0,1,.2,4.77,2.83,2.83,0,0,1,0,3.67,2.78,2.78,0,0,1,.2,2.58,2.46,2.46,0,0,1,1.58,1.22a2.59,2.59,0,0,1,1-.19,2.57,2.57,0,0,1,1,.19A2.46,2.46,0,0,1,4.91,2.58a2.8,2.8,0,0,1,.2,1.09,2.85,2.85,0,0,1-.2,1.1,2.54,2.54,0,0,1-.56.84A2.54,2.54,0,0,1,2.56,6.34Zm0-.25a2.18,2.18,0,0,0,.87-0.18,2.25,2.25,0,0,0,.72-0.49,2.33,2.33,0,0,0,.5-0.76,2.58,2.58,0,0,0,.18-1,2.53,2.53,0,0,0-.18-1,2.33,2.33,0,0,0-.5-0.76,2.2,2.2,0,0,0-.72-0.49,2.3,2.3,0,0,0-1.74,0A2.2,2.2,0,0,0,1,1.93a2.33,2.33,0,0,0-.5.76,2.53,2.53,0,0,0-.18,1,2.58,2.58,0,0,0,.18,1,2.33,2.33,0,0,0,.5.76,2.25,2.25,0,0,0,.72.49A2.2,2.2,0,0,0,2.56,6.09Zm0-.84a1.35,1.35,0,0,1-.54-0.11,1.31,1.31,0,0,1-.44-0.31,1.5,1.5,0,0,1-.3-0.5A1.86,1.86,0,0,1,1.2,3.67,1.59,1.59,0,0,1,1.32,3a1.45,1.45,0,0,1,.32-0.47,1.37,1.37,0,0,1,.46-0.3,1.46,1.46,0,0,1,.55-0.1,1.11,1.11,0,0,1,.54.12,1.88,1.88,0,0,1,.42.32l-0.18.21a1.48,1.48,0,0,0-.36-0.26,1,1,0,0,0-.42-0.09,1,1,0,0,0-.78.33,1.23,1.23,0,0,0-.3.87,1.41,1.41,0,0,0,.29.94A1,1,0,0,0,2.62,5a1.1,1.1,0,0,0,.51-0.12,1.92,1.92,0,0,0,.41-0.28L3.7,4.78a2.64,2.64,0,0,1-.46.33A1.27,1.27,0,0,1,2.6,5.25Z"/><path class="cls-2" d="M23.31,0H21.19L20.12,1.4V2.86H17.06V1.4h1.84L20,0H15.35V2.86H13.81V0H11.2l-2,2.86H7.67l-1,1.4H8.28L7.08,6H9l1.14-1.74h2V6h1.72V4.26h1.54V6h1.71V4.26h3.05V6h1.72V4.26h1.28c1.5,0,2.34-.66,2.34-2.16A2,2,0,0,0,23.31,0ZM11.05,2.86l1-1.58V2.86h-1Zm12.25,0a2.17,2.17,0,0,1-.88.11H21.83V1.34h0.59a2.13,2.13,0,0,1,.88.11,0.68,0.68,0,0,1,.35.7A0.65,0.65,0,0,1,23.31,2.81Z"/></symbol></defs><title>afp</title><use width="25.45" height="6.34" transform="translate(0 0)" xlink:href="#Nouveau_symbole_4"/></svg>