<svg xmlns="http://www.w3.org/2000/svg" viewBox="0 0 14.17 14.17"><defs><style>.cls-1{isolation:isolate;}.cls-2{mix-blend-mode:multiply;}.cls-3{fill:#e1cbd1;opacity:0;}.cls-4{fill:#e1cad0;opacity:0.04;}.cls-5{fill:#e2c9cf;opacity:0.07;}.cls-6{fill:#e2c8cf;opacity:0.11;}.cls-7{fill:#e2c7ce;opacity:0.15;}.cls-8{fill:#e2c6ce;opacity:0.19;}.cls-9{fill:#e2c5cd;opacity:0.22;}.cls-10{fill:#e2c4cd;opacity:0.26;}.cls-11{fill:#e3c4cc;opacity:0.3;}.cls-12{fill:#e3c3cc;opacity:0.33;}.cls-13{fill:#e3c2cb;opacity:0.37;}.cls-14{fill:#e4c1cb;opacity:0.41;}.cls-15{fill:#e4c1ca;opacity:0.44;}.cls-16{fill:#e4c0ca;opacity:0.48;}.cls-17{fill:#e5bfca;opacity:0.52;}.cls-18,.cls-19{fill:#e5bec9;}.cls-18{opacity:0.56;}.cls-19{opacity:0.59;}.cls-20{fill:#e6bdc8;opacity:0.63;}.cls-21,.cls-22{fill:#e6bcc8;}.cls-21{opacity:0.67;}.cls-22{opacity:0.7;}.cls-23{fill:#e7bbc7;opacity:0.74;}.cls-24{fill:#e7bac7;opacity:0.78;}.cls-25{fill:#e8bac6;opacity:0.81;}.cls-26{fill:#e8b9c6;opacity:0.85;}.cls-27{fill:#e9b8c6;opacity:0.89;}.cls-28{fill:#eab8c5;opacity:0.93;}.cls-29{fill:#ebb7c5;opacity:0.96;}.cls-30{fill:#ecb7c5;}</style></defs><title>pinkButton</title><g class="cls-1"><g id="Text"><g class="cls-2"><circle class="cls-3" cx="7.09" cy="7.09" r="7.09"/><circle class="cls-4" cx="7.09" cy="7.09" r="6.96"/><circle class="cls-5" cx="7.09" cy="7.09" r="6.84"/><circle class="cls-6" cx="7.09" cy="7.09" r="6.72"/><circle class="cls-7" cx="7.09" cy="7.09" r="6.6"/><circle class="cls-8" cx="7.09" cy="7.09" r="6.48"/><circle class="cls-9" cx="7.09" cy="7.09" r="6.35"/><circle class="cls-10" cx="7.09" cy="7.09" r="6.23"/><circle class="cls-11" cx="7.09" cy="7.09" r="6.11"/><circle class="cls-12" cx="7.09" cy="7.09" r="5.99"/><circle class="cls-13" cx="7.09" cy="7.09" r="5.87"/><circle class="cls-14" cx="7.09" cy="7.09" r="5.75"/><circle class="cls-15" cx="7.09" cy="7.09" r="5.62"/><circle class="cls-16" cx="7.09" cy="7.09" r="5.5"/><circle class="cls-17" cx="7.09" cy="7.09" r="5.38"/><circle class="cls-18" cx="7.09" cy="7.09" r="5.26"/><circle class="cls-19" cx="7.09" cy="7.09" r="5.14"/><circle class="cls-20" cx="7.09" cy="7.09" r="5.01"/><circle class="cls-21" cx="7.09" cy="7.09" r="4.89"/><circle class="cls-22" cx="7.09" cy="7.09" r="4.77"/><circle class="cls-23" cx="7.09" cy="7.09" r="4.65"/><circle class="cls-24" cx="7.09" cy="7.09" r="4.53"/><circle class="cls-25" cx="7.09" cy="7.09" r="4.4"/><circle class="cls-26" cx="7.09" cy="7.09" r="4.28"/><circle class="cls-27" cx="7.09" cy="7.09" r="4.16"/><circle class="cls-28" cx="7.09" cy="7.09" r="4.04"/><circle class="cls-29" cx="7.09" cy="7.09" r="3.92"/><circle class="cls-30" cx="7.09" cy="7.09" r="3.79"/></g></g></g></svg>