<svg id="Picture" xmlns="http://www.w3.org/2000/svg" viewBox="0 0 167.55 250.51"><defs><style>.cls-1{fill:#7d726b;}.cls-1,.cls-2,.cls-3,.cls-4,.cls-5,.cls-6,.cls-7{stroke:#fff;stroke-width:0.2px;}.cls-1,.cls-2,.cls-3,.cls-4,.cls-5,.cls-6,.cls-7,.cls-8{stroke-miterlimit:10;}.cls-2{fill:#bdb4ab;}.cls-3{fill:#a7a9ac;}.cls-4{fill:#a0262a;}.cls-5{fill:#6d68af;}.cls-6{fill:#e1f4fd;}.cls-7{fill:#414042;}.cls-8{fill:none;stroke:#bcbec0;stroke-width:0.25px;}</style></defs><title>turkey4</title><path class="cls-1" d="M302,708.55c4.26,0,14.27,1.31,15.44.8s1.67-1.64,1.09-2.4-0.44-1.09-1.24-2.15-1.2-.76-0.07-1.09,1.49,0,2.08-2.08,0.51-3.35-.51-4.66-1.38-1.57-1.71-2.08,0.44-1.07,1.67-1.79,1.57-.86.91-2.47-1.13-3.85-1.93-3.87-0.11-.5-1-1.33-1.42-1.38-.55-2.26,2.33-1.35,1.82-2.88a5.76,5.76,0,0,0-1.67-3.06c-0.95-.84-0.18-0.7-1.24-1.3s-0.4-.89,0-1.6,0.25-1.36-.87-2.53-2-3.2-2.77-3.57-0.15-1.41-1.06-2.32-1.2-1-2-.88,0.76-.22.22-0.69-0.25-.73-0.95-1.24-0.91.29-.62-0.18,0.4-.4-0.29-0.84a14.44,14.44,0,0,0-1.35-.87c-0.8-.44-0.55-0.84-1.46-0.95s0.18-.55-0.58-0.58,0.18-.91-0.44-0.95,0.07-.36-0.66-0.95-0.47-1.13-1.46-1.49-0.29-1.09-1.2-.84-1,.8-0.91.25,0.69-1-.18-1.2-1.27-.69-2.11-0.87a10.53,10.53,0,0,1-1.53-.58c-1-.33-0.69,0-1.24-0.84s-0.36-1.13-1-1.27-0.33-.91-0.95-1-0.18-.15-0.84-0.66a6.79,6.79,0,0,0-1.75-1.09c-0.58-.22.18-0.76-0.62-1a9,9,0,0,1-1.67-.55,3.94,3.94,0,0,1-1.71-1,0.87,0.87,0,0,0-1.24-.29c-0.44.11,0.44-.8-0.29-1s-0.95.62-.84,0.22,0.4-.55-0.29-0.73-0.73.73-.91,0-0.18.17-.8,0-0.62,0-1.38-.27-0.69.37-1.35,0a3.8,3.8,0,0,0-1.6-.33c-0.76-.15-0.95.15-2,0s-0.91.13-1.82,0-1.27.25-2,0a2.18,2.18,0,0,0-2.11.19c-0.33.44-1-.07-1.66,0.76s-1.18-.22-1.72.33-0.95-.69-1.93-0.25-0.91-.29-2.4.15-1.78.07-2.33,0.91,0.11,1.38-.62,1.24-0.76-.73-1.64.07-0.73,0-2.15.76-0.84.69-2.4,0.91-0.73-.58-1.86-0.11-0.66-.15-1.67.51-0.11,1.49-1.24,1.42-0.62-.66-1.38.4-0.15,1.31-1.38,1.46-1.06.4-2.08,1.16a2.73,2.73,0,0,0-1.31,2.51c0,1,.66,1.2-0.44,1.42s-1,1-2.08,1.38A4,4,0,0,0,236,660.1a3.21,3.21,0,0,0-.8,2.55c0.07,0.95.47,0.76-.66,1.09s-2.29.61-2.58,1.49-1.27,1-1.42,2a2.63,2.63,0,0,0,.33,2c0.4,0.84,1.16,1.38.55,1.66s-1.13,0-1.89,1.22-1.31,1.35-1.13,2.66,1.93,2.88,2.88,3.49,3,2,4.15,2.84,6,4.33,7.24,5.32,1.54,1.55,2.76,2.43,13.18,7,25,11.66S302,708.55,302,708.55Z" transform="translate(-188.56 -580.54)"/><path class="cls-2" d="M297,702.26c0.7-.86,1.71-2.13,2.4-3s0.66-1.16.29-3,0.58-2.9-.58-4.18-0.19-1.72-.84-3.61-1.31-4.37-2.44-5.32a19.72,19.72,0,0,0-2.44-1.75c-1.24-.84-1.85.36-1.84-1.42s1.47-1,1-2.4-0.44-2.26-1.49-3.22-3.09-2.73-4.26-3.58-1.89.14-2.91-1.24-1.42-2.65-2.58-3.6-3.49-2.41-5.1-2.41-4.7,1.24-6.1,1.16-0.53.83-2.39,0.54a8,8,0,0,0-5.64,1.24c-1.46,1.09-1.86.15-2.08,1.38s-0.58.07-2.15,0.55-1.93,1.2-3.68,2.11-1.46,2.15-2.44,3.31,0.07,2-1,2.8-3.13,1-3.9,2.66a25.07,25.07,0,0,0-1.93,4.44c-0.58,2,.95,2.12.51,3s-0.69,1.61-.22,2a20.46,20.46,0,0,1,2.95,2.35c0.76,0.87,6.41,9.84,7.83,11s12.34,4.6,17.87,4.27S295.72,703.77,297,702.26Z" transform="translate(-188.56 -580.54)"/><path class="cls-3" d="M291.06,692.43c0.47-1.79.73-1.89,0.55-2.55s0.55-1.09.55-1.64,0.47-.76.18-1.86-0.07-1.24.33-1.42,0.22-.69,0-1.49a8.43,8.43,0,0,0-.95-2.55c-0.44-.55.07-1.06-0.47-1.89s-1.2-3.08-1.89-3.74-1.71-1.89-2.51-2-1.06-1.3-1.78-1.68-2.62-1.4-3.53-2a5,5,0,0,0-2.29-1c-1.09-.21-2.57-0.43-4.14-0.65a31.51,31.51,0,0,0-6.12-.44c-1.57.18-2.52-.18-3.9,0.4s-1.89,1.53-3.17,1.64-2.18,1.08-3.06,1.73-3.17,1.76-3.79,2.95a8.24,8.24,0,0,1-2,2.61c-1.09,1.09-1,1.92-1.27,3.05a10.31,10.31,0,0,0-.44,3.32c0.08,1.38.48,0.91-.39,1.93a7.09,7.09,0,0,0-1.49,4c-0.07,1.35,1.09,1.62,1.57,3.89s6.48,5.91,8.55,6.6,13.41,0.55,16,.29,10.9-.66,12.64-2.44A10.72,10.72,0,0,0,291.06,692.43Z" transform="translate(-188.56 -580.54)"/><path class="cls-3" d="M273.95,743.47c0.35-1.07,1.64-3.55,1.8-4.86s0.93-2.33.58-3.17-4.5-.71-4.93-0.55-0.46,3.84-.31,4.57a43.87,43.87,0,0,1,.11,6.48c-0.15,2-.89,6.59-1.07,7.7s-1.24,1.29-1.89,1.47-0.49.51,0,.67a2.08,2.08,0,0,1,1.35.87,9.8,9.8,0,0,1-.29,2.89c-0.25.8-1.37,2.06-1.6,2.78s0,1.13.24,0.66,0.84-1.37.58-.86-0.58,1.24-.29,1.4,0.64-.11,1-1.35,0.51-1.11.89-.44,1,1.66,1.06,1.06a11.64,11.64,0,0,0-.44-2.29c-0.22-1.35.42-4.31,0.69-6S273.49,744.85,273.95,743.47Z" transform="translate(-188.56 -580.54)"/><path class="cls-3" d="M266.83,739.3c0.09-1.78.93-3.73,0.61-4.81s-4.46,0-3.95,1.55a24.83,24.83,0,0,1,1.18,4.17,79.37,79.37,0,0,1,.81,8.28c0.13,3.09.31,6.53-.32,8.35s-1.44,3.57-.91,4,1-2.29.82-1.51a12,12,0,0,0-.62,2.11c0.05,0.51.56,1.4,1.31-.09s1-2.55,1.35-2,1.6,2.57,1.8,1.58,0.13-1.16-.31-2.91a36.13,36.13,0,0,1-1.33-4.82,3.85,3.85,0,0,1,.56-3c0.47-.82,1.06-0.84.4-1s-1-.42-1.2-1.62S266.79,740.1,266.83,739.3Z" transform="translate(-188.56 -580.54)"/><path class="cls-3" d="M252.08,737.39a14.5,14.5,0,0,0,.82,2,10.66,10.66,0,0,1,.53,3.06c0,1.09.75,1.77,0.23,1.67s-0.74.27-.23,0.76,0.43,0.57.41,1.45-0.37.41-.41,1.28a4.63,4.63,0,0,1-.31,2.35c-0.44.74-1.12,0.66-1.2,1.12s0.08,0.57-.76,0a39.78,39.78,0,0,1-5.3-6.33c-1.39-2.1-1.45-3.36-2.59-6s-1-9.94-.16-9.17S251.91,736.63,252.08,737.39Z" transform="translate(-188.56 -580.54)"/><path class="cls-3" d="M239.46,714.64c-0.09,1.47-1,5.57-.52,8s0.71,1.53.9,2.38,0.33,0.82.57,1.8a9.74,9.74,0,0,0,.85,1.94c0.44,1,2.32,3.28,2.43,2.13s0.43-.51.49-1.78,0.3-8.16.3-9.55,0.11-2.87,0-4.18-1.56-.87-2-1.31S239.6,712.46,239.46,714.64Z" transform="translate(-188.56 -580.54)"/><path class="cls-3" d="M244.49,730a12.74,12.74,0,0,0,.35,1.34,7.59,7.59,0,0,0,0,1.37,3,3,0,0,1-.18,1.61,2.6,2.6,0,0,0,0,1.83c0.21,0.93-.31.87-0.36,1.53a4.25,4.25,0,0,0,0,2.48c0.44,0.93-.09.8,0.18,1.28s0.4,0.92.63,1.43,0,1.24.45,1.65,0.3,1.06.9,1.67,0.25,0.25.66,1.17-0.41.87,0.14,1.12,0.22,0.76.68,1.17-0.07.16,0.53,0.79,0.08,1.06.48,1.75a2.11,2.11,0,0,1,.19,1.64c-0.05.55-.44,0.41-0.79,1.28s-0.05,1.45-.55,1.47-0.6.55-.82,1.23-1,1.47-1.45,1.12-0.41.52-.79,0.22-0.38.25-1.12-.33-0.66.27-1.12-.55-2.35-11.36-2.1-16,0.19-14.17,1.39-18.59,1.09-3.66,1.45-3.63,0.25-1,.68-0.79,0.35-.82.74-0.63-0.16,1.75.27,2.18-0.65.79-.14,1.12-0.49.55,0,.87-0.52,1.56,0,1.77-0.93,1.31-.36,1.47-0.68,1.56-.08,1.64-0.38,1.28-.05,1.09S244.46,729.14,244.49,730Z" transform="translate(-188.56 -580.54)"/><path class="cls-3" d="M285.72,737.75a13.42,13.42,0,0,1-1,2.05,9.18,9.18,0,0,0-.65,3.1c0,1.11-.92,1.8-0.28,1.69s0.9,0.28.28,0.78-0.53.58-.51,1.47,0.46,0.42.51,1.3-0.15,1.64.38,2.38,1.37,0.67,1.47,1.14-0.1.58,0.94,0a43.43,43.43,0,0,0,6.49-6.43c1.71-2.13,1.77-3.41,3.18-6.1s1.17-10.09.2-9.31S285.93,737,285.72,737.75Z" transform="translate(-188.56 -580.54)"/><path class="cls-3" d="M301.17,714.66c0.11,1.5,1.27,5.65.64,8.12s-0.87,1.55-1.1,2.41-0.4.83-.7,1.83a9.11,9.11,0,0,1-1,2c-0.54,1.05-2.84,3.33-3,2.16s-0.53-.52-0.6-1.81-0.37-8.28-.37-9.7-0.14-2.91,0-4.24,1.92-.89,2.5-1.33S301,712.45,301.17,714.66Z" transform="translate(-188.56 -580.54)"/><path class="cls-3" d="M295.42,730.21c0,0.89-.43.78-0.43,1.36a6.4,6.4,0,0,1,0,1.39,2.56,2.56,0,0,0,.22,1.64,2.22,2.22,0,0,1,0,1.86c-0.26.94,0.38,0.89,0.44,1.55s0.54,1.58,0,2.52,0.11,0.81-.22,1.3-0.49.93-.78,1.45,0,1.26-.55,1.68-0.37,1.08-1.1,1.69-0.3.25-.8,1.19,0.5,0.89-.17,1.14-0.27.78-.84,1.19,0.08,0.17-.64.8-0.09,1.08-.59,1.77a1.82,1.82,0,0,0-.23,1.66c0.07,0.55.54,0.42,1,1.3s0.07,1.47.67,1.5,0.74,0.55,1,1.25,1.27,1.5,1.77,1.14,0.5,0.53,1,.22,0.47,0.25,1.37-.33,0.8,0.28,1.37-.55,2.88-11.53,2.57-16.22-0.23-14.39-1.71-18.88-1.34-3.71-1.77-3.69-0.3-1-.84-0.8-0.43-.83-0.9-0.64,0.2,1.77-.33,2.22,0.8,0.8.17,1.14,0.6,0.55,0,.89,0.63,1.58,0,1.8,1.14,1.33.44,1.5,0.84,1.58.1,1.66,0.47,1.3.07,1.11S295.45,729.38,295.42,730.21Z" transform="translate(-188.56 -580.54)"/><path class="cls-3" d="M243.3,699.42c-1.52.66-3.86,1.89-4.66,3.28s-0.44,3.46-1.13,4.3-0.44,1.27-.62,2.66a6.69,6.69,0,0,0,1.71,4.81c1.09,0.95,2,.55,3.06,1.13s2.32-.33,3.27-0.73,0.47-1.2,1.31-2.77a45.85,45.85,0,0,0,2.33-4.91c0.95-2.29,1.82-4.4.66-5.82S244.61,698.85,243.3,699.42Z" transform="translate(-188.56 -580.54)"/><path class="cls-3" d="M301.54,704.08c-1.22-.55-2.48-1.78-4-2s-2,2.51-3.13,3.06,0.07,4.22-.25,5.5-0.4,6.23-.8,7.21a3.5,3.5,0,0,0,.66,3.49c0.93,1.07,1.25.73,2.33-.18a22,22,0,0,1,5.24-2.69c1.24-.4,1.6-1.38,1.82-2.88a23,23,0,0,1,.4-3.28,12.73,12.73,0,0,0,0-4.55C303.55,706.48,303.25,704.84,301.54,704.08Z" transform="translate(-188.56 -580.54)"/><path class="cls-3" d="M293.28,706.44c0.61,0.55.64,0.8,1.74,0s1.25-1.46,1.83-1.53-0.15-1.35.58-1.27,0.73,0.11.76-1a5.6,5.6,0,0,0-.66-3.68c-0.84-1.16-.94-3.79-2.58-5s-0.51-1.6-1.86-2.15-1.2-.22-2.33-0.95-0.58-.25-1.53.44A6,6,0,0,0,286.8,694c-0.95,1.82-1.57,2.26-1.16,3.68s2.11,0.87,2.73,2.62,2.82,3.49,3.5,4.55A5.19,5.19,0,0,0,293.28,706.44Z" transform="translate(-188.56 -580.54)"/><path class="cls-3" d="M248.94,704.15c1.32,0.71,1.49.18,2.95-1.16s1.46-1.89,3-2.91a25.92,25.92,0,0,1,2.84-1.73c1.35-.74.73-0.71,0.33-1.58s-0.55-3.24-1.67-4-1.29-2.84-2.63-3.64-2.66-.33-3.95.33-3,2.95-3.69,4a9,9,0,0,0-1.82,3.86c-0.11,1.42-.22,1.89.69,3s0.91,0.91,1.31,1.49,0.55,0.15.95,0.73A4.27,4.27,0,0,0,248.94,704.15Z" transform="translate(-188.56 -580.54)"/><path class="cls-3" d="M254.8,686.6a31.92,31.92,0,0,1-.22,3.39c-0.18.91,0.77,2.76,1.68,4.44s2,3.78,3.28,3.91,4.51,0.28,5.24.64,4.59-.87,7-0.27a33.9,33.9,0,0,0,9,.34c2-.21,2.8.33,4.4-0.51s1.16-1.42,2.48-3.57,2.22-3.06,2-5.06-1.6-7-2.48-8.26a44.74,44.74,0,0,0-3.17-3.71,13.91,13.91,0,0,0-6.55-3.49,58.42,58.42,0,0,0-8.85.25c-1.89.18-8.48,2.58-9.68,4.3S255,683.22,254.8,686.6Z" transform="translate(-188.56 -580.54)"/><path class="cls-3" d="M273.95,735.75c0.84,0.39,3,.33,3.13.69s-0.09.8-1,1-0.74.49,0.1,0.86-0.22.18,0.47,0.44,0.33,0.81,1.24.55a1.69,1.69,0,0,1,1.75.07c0.55,0.36.4,0.47,0.15,0.84s0.4,0.48,1,.31,0.84,0.05.33,0.41-0.4.4,0.58,0.36,5.72-.94,7.46-2,3.82-2.08,5.1-3.54,1.89-4.84,1.82-7,0-6-1.05-7.27a3,3,0,0,1-.88-2.92c0.15-1,.84-2.62.51-4.37s0.16-3.81-.25-5.35,0-1.46-1.06-2.44-0.21-.65-1.25-1.33-1.3-2.46-1.77-3.3,0.33-.95-0.65-1.64-1.7-.36-2.48-1.47-1-.93-2.14-0.64a20,20,0,0,1-3.83.64c-1.24.05-1.71,0.49-2.69,0s-0.11-.75-0.95-1.51a3,3,0,0,0-1.89-1.13c-0.84-.11-1.93.22-3.48,0a6.89,6.89,0,0,0-3.37.53c-1,.27-1.47,0-2,0.78s-0.34,1-1.94,1-5.32-1.18-7.39-.63-3.53,2.44-4.77,3.42a16.18,16.18,0,0,0-2.94,3.2c-1.35,1.67-3,4.51-3.65,5.5s-1.67,5.39-1.65,8.15c0,2.4-.13,7.68-0.28,10.15a8.13,8.13,0,0,0,2.91,6.23c2.68,2.37,6,4,7,4.77s5.28,0.59,5.68.15-0.22-.81-0.55-1.64-0.15-.8.87-0.55a12.52,12.52,0,0,0,3.83.43c0.72-.18-0.38-0.51-0.81-0.83s1.49,0.15,2.44-.51a6.92,6.92,0,0,1,3.64-1.57C271.11,734.4,270.75,734.26,273.95,735.75Z" transform="translate(-188.56 -580.54)"/><path class="cls-4" d="M275,672.68a11.56,11.56,0,0,1-.19,1.91c-0.22.6,0.25,0.66,0,1.26s0.32,0.71.07,1.47,0.24,1.37-.13,2.1,0.21,1.45,0,2.08,0.25,0.44.06,1.2,0.36,1.15.19,1.8,0,1-.18,1.67,0.57,0.76.21,1.61a10.25,10.25,0,0,0-.31,2.43c-0.18,1-.26,1.18-0.92,1.1s-0.82.6-1.61,0.71a2.34,2.34,0,0,1-1.64-.19c-0.63-.27-1.5.1-2-0.63s0.25-1-.27-1.28-0.74-.85-0.35-0.93,0.46-.38.44-1-0.52-.46-0.33-0.93a6.7,6.7,0,0,0,.19-1,3.42,3.42,0,0,0,.35-1.67c-0.08-.82-0.52-1.31-0.25-1.8a3.24,3.24,0,0,0,.27-1.34,12.26,12.26,0,0,0,.55-2.65c-0.05-.85.08-1.37,0-2.1a6.63,6.63,0,0,1,.48-2.87c0.39-.79,1-1.94,1.75-2s2.85,0,3.17,0S275,672.13,275,672.68Z" transform="translate(-188.56 -580.54)"/><path class="cls-3" d="M268.08,690.46a2.81,2.81,0,0,0-1.25,1.79,8.71,8.71,0,0,0-.3,3.22c0.19,1,.33,1.69,1.15,1.83a2,2,0,0,0,2-.87c0.05-.44-0.19-1-0.22-1.86s1-1.94.66-2.4-0.18-.57,0-0.38a0.79,0.79,0,0,1,.08,1.12,3.7,3.7,0,0,0-.52,2.4,1.38,1.38,0,0,0,.93,1.29c0.74,0.43,2.35.43,2.68-.11a3.44,3.44,0,0,0,.36-1.14,2.8,2.8,0,0,0-.08-1.45c-0.3-.66.19-2.79,0.14-1.83s-0.74,4.07.57,4.42a1.62,1.62,0,0,0,2.21-1.56c0-1.09-.11-2.78-0.74-3.44A1.61,1.61,0,0,1,275,690c0-.79-0.41.66-0.71,0.93s-0.55.82-.85,0.44,0.35-.82.05-1.42-0.11-.2-0.35.53-0.28,1.19-1,1.36a1.25,1.25,0,0,1-1.61-1c-0.44-1-1.05-2.87-.88-1.83s0.92,2.46.45,2.24-1.1.05-1.48-.44-0.66-1.26-.52-0.87S268.27,690.28,268.08,690.46Z" transform="translate(-188.56 -580.54)"/><path class="cls-5" d="M273.7,675.65c-0.5.54-1.09,0.33-1.8,0.33s-0.49,0-1.42,0-1.39-1.14-2-2.2-0.44-5.08-.33-5.76,0.82-1.31,2-1.77a4,4,0,0,1,5.24,1.58,3.63,3.63,0,0,1,.3,2.43,22.69,22.69,0,0,1-1,3.09C274.3,674.26,274.36,674.94,273.7,675.65Z" transform="translate(-188.56 -580.54)"/><path class="cls-4" d="M269.88,678.9a1.77,1.77,0,0,0,.71,1.47c0.46,0.55.79,0.79,0.35,0.79s-0.38.33-.57,0.93a3.4,3.4,0,0,0-.35,1.77c0.11,0.76.38,0.71,0.74,0a3.73,3.73,0,0,0,.7-1.88,31.69,31.69,0,0,0,0-3.22c0-1,.39-2.95.25-3.41s-1.31,1.69-1.61,2.38A1.64,1.64,0,0,0,269.88,678.9Z" transform="translate(-188.56 -580.54)"/><path class="cls-6" d="M272.58,671c-0.61.63-.16,1.32-0.85,1.92a10.82,10.82,0,0,0-2.07,2.39c-0.33.67-.79,2-1.34,2.22s-0.21-.27-0.27-1.28-0.34-5.65-.33-6.53,0-1,.38-1,0.3,0-.16-0.22a1,1,0,0,1-.22-1.39,20.65,20.65,0,0,1,1.64-1.39c0.52-.6,1.23-0.52,2.38-0.41a7.21,7.21,0,0,1,2.51.62,1.45,1.45,0,0,1,1,1.23c0.16,0.71.6,1.72,0.16,1.83s-0.41-.55-0.74-0.68-0.35-.16-0.79.16,0.16-.27,0,0.25A4.51,4.51,0,0,1,272.58,671Z" transform="translate(-188.56 -580.54)"/><path class="cls-3" d="M273.18,674.35c-0.38.47-2,.89-2.54,2s-2.33,3.76-1.48,1,1.08-2.67,1.9-3.49,1.71-.35,2.12-0.49S273.7,673.7,273.18,674.35Z" transform="translate(-188.56 -580.54)"/><path class="cls-3" d="M272.67,673.74a0.62,0.62,0,0,0-.93-0.31,4.19,4.19,0,0,0-2.07,2.6c-0.56,1.54-.93,2.88-0.53,2.45a39.35,39.35,0,0,1,2.32-3.19,2.07,2.07,0,0,1,1.21-.73C272.94,674.56,273.16,674.45,272.67,673.74Z" transform="translate(-188.56 -580.54)"/><path class="cls-3" d="M273.35,670.71c0,0.33.82,0.35,1.23-.41s0.27-1.58-.22-1.58S273.29,669.87,273.35,670.71Z" transform="translate(-188.56 -580.54)"/><path class="cls-7" d="M273.45,670.59c0,0.28.7,0.3,1.05-.35s0.23-1.36-.19-1.36S273.41,669.86,273.45,670.59Z" transform="translate(-188.56 -580.54)"/><path class="cls-2" d="M234.86,672.28c2.88,3,15.7,11,14.33,8S232.16,669.45,234.86,672.28Z" transform="translate(-188.56 -580.54)"/><path class="cls-2" d="M239.48,665.1c2.88,3.37,15.72,12.22,14.34,9S236.78,661.94,239.48,665.1Z" transform="translate(-188.56 -580.54)"/><path class="cls-2" d="M245.24,657.74c2.52,3.63,14.48,13.78,13.47,10.47S242.88,654.34,245.24,657.74Z" transform="translate(-188.56 -580.54)"/><path class="cls-2" d="M254.42,653.3c1.61,3.86,10.51,15.4,10.19,12.06S252.91,649.67,254.42,653.3Z" transform="translate(-188.56 -580.54)"/><path class="cls-2" d="M265.25,649.69c0.18,4.15,4.5,17.78,5.34,14.52S265.08,645.8,265.25,649.69Z" transform="translate(-188.56 -580.54)"/><path class="cls-2" d="M277,648.21c-1.5,4-2.93,18.56-.84,15.85S278.4,644.49,277,648.21Z" transform="translate(-188.56 -580.54)"/><path class="cls-2" d="M288.46,652.8c-2.84,2.88-9.76,15.1-6.9,13.56S291.13,650.09,288.46,652.8Z" transform="translate(-188.56 -580.54)"/><path class="cls-2" d="M296.65,659c-3.52,1.9-14.13,11.82-11.12,11.29S300,657.24,296.65,659Z" transform="translate(-188.56 -580.54)"/><path class="cls-2" d="M303,666c-3.52,1-15.49,7.91-12.83,8.07S306.27,665.08,303,666Z" transform="translate(-188.56 -580.54)"/><path class="cls-2" d="M306.54,673.27c-3.61,0-16.31,3.24-13.7,4.13S309.93,673.28,306.54,673.27Z" transform="translate(-188.56 -580.54)"/><path class="cls-2" d="M310.05,680.63c-3.74-.46-17.58,1.34-15,2.57S313.57,681.06,310.05,680.63Z" transform="translate(-188.56 -580.54)"/><path class="cls-2" d="M312.41,688.95c-3.92-1.55-18.65-3.24-16.06-1.13S316.09,690.4,312.41,688.95Z" transform="translate(-188.56 -580.54)"/><path class="cls-2" d="M313.21,697.14c-3.47-1.85-16.86-5-14.66-2.73S316.46,698.88,313.21,697.14Z" transform="translate(-188.56 -580.54)"/><path class="cls-2" d="M313.06,704.94c-3.33-2.68-16.09-8.37-13.95-5.44S316.19,707.46,313.06,704.94Z" transform="translate(-188.56 -580.54)"/><rect class="cls-8" x="0.13" y="0.13" width="167.3" height="250.26"/><rect class="cls-8" x="0.13" y="39.48" width="167.07" height="167.07"/></svg>